<?xml version="1.0" encoding="UTF-8" standalone="yes"?>
<svg version="1.2" width="500.000000pt" height="500.000000pt" viewBox="0 0 500.000000 500.000000" preserveAspectRatio="xMidYMid meet" baseProfile="tiny-ps" xmlns="http://www.w3.org/2000/svg">
  <title>bimi-svg-tiny-12-ps</title>
  <g transform="translate(0.000000,500.000000) scale(0.100000,-0.100000)" fill="#000000" stroke="none">
    <path d="M1414 4848 c32 -117 28 -231 -21 -528 -22 -134 -27 -198 -27 -340 -1&#xA;-160 2 -183 26 -273 94 -337 272 -540 586 -668 76 -31 82 -36 78 -59 -5 -24&#xA;-17 -154 -34 -353 l-7 -88 -110 -48 c-520 -226 -948 -551 -1256 -956 -65 -86&#xA;-68 -93 -28 -67 54 36 222 120 296 148 165 62 419 111 698 134 72 6 155 15&#xA;186 20 51 9 61 8 115 -17 51 -24 73 -28 153 -28 l94 -1 12 -35 c24 -67 67&#xA;-142 110 -188 39 -42 43 -52 49 -116 17 -166 56 -253 153 -345 58 -55 63 -63&#xA;63 -102 0 -58 14 -105 48 -158 26 -43 27 -50 25 -150 -2 -58 -6 -132 -8 -165&#xA;-3 -33 -7 -85 -9 -115 -3 -30 -8 -81 -12 -112 -8 -71 10 -108 55 -108 38 0&#xA;143 87 161 132 7 18 21 42 31 53 10 11 25 37 34 58 8 21 35 67 60 102 65 96&#xA;79 146 80 305 2 124 4 140 29 192 16 34 29 82 33 123 l6 67 68 44 c81 53 246&#xA;134 271 134 16 0 18 -11 18 -123 0 -206 -47 -339 -163 -463 l-57 -62 39 9&#xA;c113 25 198 76 282 167 98 107 160 237 219 465 16 60 31 111 33 113 8 9 174&#xA;34 351 54 99 12 196 26 214 31 51 17 66 48 59 124 -10 101 -41 148 -110 160&#xA;l-39 8 7 46 c19 132 21 136 80 160 30 13 55 25 55 27 0 17 -54 131 -79 168&#xA;-26 37 -30 50 -21 65 21 41 12 73 -34 116 -38 34 -45 47 -50 90 -3 28 -10 67&#xA;-15 87 -8 36 -6 38 30 63 45 29 77 87 88 156 5 27 7 49 5 49 -2 0 -38 -12 -80&#xA;-26 -77 -26 -104 -26 -104 -1 0 33 -76 251 -121 346 -208 441 -592 728 -1164&#xA;870 -76 19 -247 51 -272 51 -6 0 -16 -24 -23 -52 -6 -29 -15 -70 -21 -90 l-10&#xA;-38 -61 31 c-136 68 -208 172 -253 361 -53 226 -116 353 -228 461 -72 69 -88&#xA;64 -54 -19 65 -156 85 -270 97 -539 5 -120 16 -236 24 -271 36 -145 92 -242&#xA;187 -322 l61 -52 -84 0 c-104 0 -203 21 -271 57 -82 43 -195 163 -245 261 -80&#xA;153 -94 219 -112 507 -6 94 -17 198 -25 233 -18 75 -63 168 -106 217 -36 41&#xA;-65 47 -55 13z m102 -583 l8 -70 11 75 11 75 8 -90 c16 -189 51 -307 127 -433&#xA;87 -144 200 -240 339 -288 99 -35 233 -42 395 -20 209 28 362 18 509 -33 124&#xA;-44 236 -144 277 -249 24 -61 39 -216 22 -233 -5 -5 -8 6 -6 29 l3 37 -13 -40&#xA;-13 -40 -6 80 c-5 83 -27 143 -65 178 -16 13 -14 5 10 -42 82 -166 20 -332&#xA;-158 -418 l-70 -34 59 7 c33 3 71 10 84 15 51 19 33 -2 -24 -28 -51 -24 -71&#xA;-28 -149 -28 -78 1 -97 4 -147 29 -54 27 -147 110 -137 121 3 3 41 -1 84 -8&#xA;76 -13 78 -13 56 4 -36 29 -121 57 -401 130 -299 79 -384 109 -498 180 -201&#xA;123 -326 307 -395 577 -18 72 -21 112 -20 237 1 150 29 384 32 268 2 -96 18&#xA;-63 32 65 14 139 15 139 35 -53z m635 75 c3 17 10 1 23 -53 36 -159 127 -295&#xA;257 -386 l69 -49 -70 -103 c-39 -57 -74 -105 -79 -107 -18 -6 -110 79 -149&#xA;137 -72 109 -96 215 -105 471 -5 126 -4 132 9 90 l14 -45 -5 70 -4 70 18 -60&#xA;c15 -47 19 -55 22 -35z m595 -330 c323 -66 605 -184 813 -340 102 -78 242&#xA;-225 313 -330 57 -87 126 -216 117 -223 -2 -3 -38 0 -79 5 -75 10 -524 4 -591&#xA;-8 l-36 -6 -6 51 c-8 66 -55 165 -107 223 -129 147 -381 222 -665 197 -65 -6&#xA;-123 -13 -128 -16 -18 -11 17 44 94 148 84 114 138 215 146 279 3 23 11 40 18&#xA;40 7 0 57 -9 111 -20z m1149 -940 c140 -15 129 -7 163 -117 46 -147 45 -143&#xA;30 -143 -7 0 -74 5 -148 10 -135 11 -335 3 -530 -21 -129 -15 -125 -13 -145&#xA;-66 -76 -202 -287 -304 -480 -232 -64 24 -141 88 -177 148 -12 20 -22 37 -23&#xA;38 -6 10 -286 -54 -425 -97 -36 -11 -68 -20 -72 -20 -10 0 -10 159 -2 222 l6&#xA;46 107 25 c250 61 289 58 341 -23 69 -108 175 -172 297 -178 228 -13 407 122&#xA;444 334 l11 62 96 9 c133 14 398 15 507 3z m388 -297 c-14 -40 -59 -87 -101&#xA;-105 -52 -24 -121 -21 -238 8 l-69 18 35 15 c32 14 33 15 11 19 -36 6 -150&#xA;-17 -192 -39 l-39 -19 0 28 c0 16 9 41 21 56 19 25 25 26 112 26 51 0 146 -5&#xA;212 -11 99 -8 129 -8 170 4 71 21 86 21 78 0z m-644 -35 c-11 -40 -12 -99 -1&#xA;-116 7 -10 17 -9 51 3 55 19 152 19 261 0 47 -8 115 -15 152 -15 l67 0 10 -52&#xA;c6 -29 13 -70 17 -91 7 -41 47 -97 70 -97 17 0 30 -48 17 -68 -7 -12 -33 -16&#xA;-127 -16 l-117 -1 3 40 c3 36 7 41 38 52 l35 12 -46 0 c-55 1 -70 -12 -76 -72&#xA;-5 -42 -5 -42 -92 -84 -199 -95 -356 -290 -416 -516 l-22 -82 -49 0 c-134 1&#xA;-210 110 -215 308 l-2 67 -47 -6 c-45 -6 -95 8 -88 24 2 4 53 55 114 115 l111&#xA;107 64 -20 c125 -39 159 -79 159 -192 1 -62 1 -63 16 -35 21 39 29 127 15 169&#xA;-15 45 -72 100 -139 133 -29 15 -52 30 -50 33 88 173 112 237 138 364 12 63&#xA;12 62 117 66 l42 2 -10 -32z m-203 -30 c-22 -138 -94 -297 -188 -414 -31 -39&#xA;-118 -126 -192 -193 -74 -67 -162 -151 -195 -187 -124 -133 -216 -286 -267&#xA;-449 l-29 -90 -3 77 c-3 89 15 180 58 282 29 69 29 70 5 41 -66 -82 -115 -213&#xA;-115 -312 0 -29 -4 -53 -9 -53 -18 0 -128 88 -177 142 -95 104 -120 190 -110&#xA;373 4 66 9 136 12 155 l6 35 -73 -71 c-169 -164 -286 -209 -624 -245 -104 -11&#xA;-233 -28 -285 -39 -52 -11 -96 -18 -97 -16 -2 2 42 47 99 101 119 112 286 240&#xA;409 314 119 71 450 226 414 194 -5 -5 -41 -32 -80 -61 -38 -28 -90 -72 -115&#xA;-97 l-45 -47 70 44 c69 44 330 197 350 205 38 16 -263 -242 -450 -385 -53 -41&#xA;104 48 220 124 61 39 152 108 204 153 116 99 225 177 313 226 l68 37 42 -35&#xA;c24 -19 55 -41 70 -48 l27 -14 -79 -59 c-83 -61 -134 -116 -165 -176 -18 -34&#xA;-17 -34 36 15 58 54 155 125 230 169 41 23 53 25 107 20 34 -4 59 -10 57 -14&#xA;-3 -5 -76 -55 -163 -113 -88 -58 -184 -129 -215 -157 -92 -84 -150 -192 -162&#xA;-301 l-5 -54 18 50 c71 189 146 268 377 398 138 78 207 124 299 204 131 112&#xA;184 170 216 238 28 60 33 64 68 68 81 8 75 11 68 -35z m-872 -93 c7 -18 10&#xA;-17 -184 -86 -418 -149 -778 -336 -1020 -529 -47 -38 -132 -116 -190 -175&#xA;-101 -103 -108 -109 -185 -135 -44 -15 -104 -37 -134 -49 -29 -12 -56 -20 -58&#xA;-17 -10 9 273 282 382 369 362 289 796 508 1190 600 174 41 191 43 199 22z&#xA;m1719 -407 c34 -40 54 -75 58 -106 4 -20 -7 -28 -91 -65 -147 -65 -209 -104&#xA;-280 -176 -36 -37 -89 -107 -117 -156 -29 -49 -53 -84 -53 -79 0 21 58 181 85&#xA;234 15 30 47 83 71 118 45 65 34 70 -25 11 -84 -84 -134 -199 -185 -424 -72&#xA;-320 -88 -381 -117 -453 -29 -74 -68 -142 -55 -96 14 46 38 199 62 394 29 240&#xA;52 337 102 440 48 98 48 97 27 80 -26 -21 -97 -135 -123 -195 -36 -88 -61&#xA;-204 -82 -385 -20 -181 -48 -319 -76 -371 -8 -17 -17 -29 -19 -27 -1 1 3 32&#xA;11 68 8 40 14 131 14 240 1 253 29 432 91 568 115 254 377 432 614 417 54 -3&#xA;63 -7 88 -37z m-2123 -332 l0 -93 -47 -6 c-50 -5 -144 8 -176 25 -16 8 -11 13&#xA;32 35 28 15 81 50 118 79 37 28 69 53 71 53 1 1 2 -41 2 -93z m919 44 c12 0&#xA;21 -19 34 -69 18 -68 68 -165 109 -208 38 -40 117 -73 176 -73 l55 0 -7 -46&#xA;c-3 -26 -6 -61 -6 -79 0 -30 -4 -34 -67 -60 -38 -15 -116 -52 -175 -82 -59&#xA;-30 -110 -54 -114 -54 -8 0 -57 177 -56 206 0 11 8 40 18 65 14 34 18 70 18&#xA;145 0 106 -15 160 -68 244 -33 51 -18 68 31 35 20 -13 43 -24 52 -24z m1161&#xA;38 c0 -7 -9 -42 -20 -76 -28 -90 -28 -92 25 -92 35 0 52 -6 77 -29 27 -24 32&#xA;-36 36 -88 4 -54 2 -62 -16 -67 -11 -4 -107 0 -213 9 -107 8 -206 15 -221 15&#xA;-41 0 -35 19 33 109 64 86 133 146 226 198 64 36 73 39 73 21z m-1244 -174&#xA;c24 -63 24 -180 0 -249 -10 -27 -46 -99 -81 -160 -35 -60 -71 -126 -80 -146&#xA;l-17 -36 -99 66 -99 66 5 43 c20 141 128 349 253 483 l55 60 22 -39 c12 -22&#xA;31 -61 41 -88z m1194 -214 c58 -3 96 -7 85 -8 -11 -1 -119 -13 -239 -27 -121&#xA;-13 -221 -24 -222 -22 -1 1 4 17 11 35 l14 32 123 -1 c68 -1 170 -5 228 -9z&#xA;m-1517 -343 c64 -44 117 -83 117 -86 -1 -20 -61 -176 -68 -174 -19 4 -171 98&#xA;-209 130 -24 19 -54 53 -68 76 -26 45 -55 151 -55 205 l0 32 83 -51 c45 -29&#xA;135 -88 200 -132z m338 75 c44 -116 24 -226 -69 -384 l-45 -77 -59 45 c-68 53&#xA;-68 44 -4 205 50 125 134 282 146 274 5 -3 19 -31 31 -63z m-338 -373 c48 -25&#xA;157 -100 175 -122 10 -12 7 -26 -20 -76 -18 -33 -36 -61 -39 -61 -15 0 -129&#xA;114 -143 145 -21 43 -37 135 -24 135 5 0 28 -10 51 -21z m294 -184 c-7 -103&#xA;-32 -176 -82 -242 l-39 -52 -37 32 c-26 23 -36 38 -32 52 8 35 91 198 134 264&#xA;36 57 42 63 51 46 7 -11 8 -51 5 -100z"/>
    <path d="M3808 2593 c-38 -9 -68 -20 -68 -24 0 -5 21 -9 48 -9 53 0 118 -16&#xA;127 -31 4 -5 4 -28 0 -50 -6 -34 -14 -44 -61 -74 -93 -60 -162 -146 -189 -235&#xA;-6 -19 -1 -16 22 15 40 54 110 117 179 161 61 39 84 78 84 141 0 21 -7 47 -15&#xA;57 -22 29 -19 34 21 42 25 5 32 9 22 15 -19 13 -94 9 -170 -8z"/>
  </g>
</svg>